<svg xmlns="http://www.w3.org/2000/svg" width="39.056" height="30.276" viewBox="0 0 39.056 30.276">
    <defs>
        <linearGradient id="cagkaflp0a" x1=".5" x2=".5" y2="1" gradientUnits="objectBoundingBox">
            <stop offset="0" stop-color="#1f8efa"/>
            <stop offset="1" stop-color="#2a72e5"/>
        </linearGradient>
    </defs>
    <g data-name="그룹 6622">
        <path d="M22.575-6.252 37.056 5.86 33.19 16.873 13.1 23.024 0 14 6.87-.011z" transform="translate(0 6.252)" style="opacity:.55;fill:#609"/>
        <path d="M22.575-6.252 37.056 5.86 33.19 16.873 13.1 23.024 0 14 6.87-.011z" transform="translate(1 7.252)" style="fill:#660200;opacity:.55"/>
        <path d="M22.575-6.252 37.056 5.86 33.19 16.873 13.1 23.024 0 14 6.87-.011z" transform="translate(2 7.252)" style="fill:#e4e433;opacity:.55"/>
        <path d="M22.575-6.252 37.056 5.86 33.19 16.873 13.1 23.024 0 14 6.87-.011z" transform="translate(2 6.252)" style="fill:#06e400;opacity:.55"/>
        <path d="M22.575-6.252 37.056 5.86 33.19 16.873 13.1 23.024 0 14 6.87-.011z" transform="translate(0 6.252)" style="fill:#33e4e4;opacity:.55"/>
        <path d="M22.575-6.252 37.056 5.86 33.19 16.873 13.1 23.024 0 14 6.87-.011z" transform="translate(1 6.252)" style="fill:url(#cagkaflp0a)"/>
    </g>
</svg>
