<svg xmlns="http://www.w3.org/2000/svg" width="74.865" height="78.606" viewBox="0 0 74.865 78.606">
    <defs>
        <linearGradient id="73lwhf3l5a" x1=".5" x2=".5" y2="1" gradientUnits="objectBoundingBox">
            <stop offset="0" stop-color="#1f8efa"/>
            <stop offset="1" stop-color="#2a72e5"/>
        </linearGradient>
    </defs>
    <g data-name="그룹 6616">
        <path d="m30 0 14.7 27.517-8.759 23.119-32.17 13.187-15.755-26.873 7.213-26.833z" transform="rotate(-17 53.299 -34.651)" style="opacity:.55;fill:#609"/>
        <path d="m30 0 14.7 27.517-8.759 23.119-32.17 13.187-15.755-26.873 7.213-26.833z" transform="rotate(-17 53.299 -34.651)" style="fill:#660200;opacity:.55"/>
        <path d="m30 0 14.7 27.517-8.759 23.119-32.17 13.187-15.755-26.873 7.213-26.833z" transform="rotate(-17 53.799 -37.997)" style="fill:#e4e433;opacity:.55"/>
        <path d="m30 0 14.7 27.517-8.759 23.119-32.17 13.187-15.755-26.873 7.213-26.833z" transform="rotate(-17 50.453 -38.497)" style="fill:#06e400;opacity:.55"/>
        <path d="m30 0 14.7 27.517-8.759 23.119-32.17 13.187-15.755-26.873 7.213-26.833z" transform="rotate(-17 49.453 -31.806)" style="fill:#33e4e4;opacity:.55"/>
        <path d="m30 0 14.7 27.517-8.759 23.119-32.17 13.187-15.755-26.873 7.213-26.833z" transform="rotate(-17 49.953 -35.151)" style="fill:url(#73lwhf3l5a)"/>
    </g>
</svg>
