<svg xmlns="http://www.w3.org/2000/svg" width="2247.78" height="1531.065" viewBox="0 0 2247.78 1531.065">
    <g data-name="그룹 6539" style="opacity:.15">
        <g data-name="패스 257" style="fill:none">
            <path d="M461.07 2.056c206.53-36.11 338.678 407.689 295.151 991.252S509.977 2079.216 303.443 2115.326s-338.678-407.688-295.15-991.252S254.536 38.167 461.07 2.056z" style="stroke:none" transform="rotate(-113 656.055 666.674)"/>
            <path d="M484.37 1c-7.598 0-15.38.687-23.128 2.042-6.356 1.11-12.822 2.695-19.218 4.708-6.351 1.998-12.805 4.474-19.184 7.358-12.638 5.714-25.474 13.251-38.153 22.403-12.525 9.042-25.197 19.877-37.662 32.203-12.334 12.197-24.759 26.143-36.93 41.45-12.062 15.173-24.158 32.04-35.953 50.134-11.713 17.97-23.402 37.569-34.742 58.252-22.603 41.228-44.444 87.857-64.919 138.595-20.478 50.745-39.755 106.016-57.298 164.277-17.712 58.824-33.81 121.214-47.847 185.438-14.298 65.413-26.602 133.403-36.572 202.08a3084.186 3084.186 0 0 0-13.488 105.871A3127.043 3127.043 0 0 0 9.29 1124.15c-8.063 108.099-10.259 213.696-6.526 313.859 3.612 96.925 12.723 187.757 27.08 269.97 7.046 40.343 15.407 78.765 24.852 114.198 9.428 35.368 20.092 68.35 31.698 98.027 5.806 14.847 11.946 29.115 18.25 42.405 6.325 13.332 12.974 26.02 19.763 37.711 6.82 11.742 13.954 22.777 21.206 32.8 7.291 10.076 14.887 19.386 22.577 27.671 8.386 9.035 17.106 17.09 25.917 23.941 8.883 6.907 18.084 12.766 27.348 17.414 9.352 4.692 19.008 8.27 28.7 10.634a126.64 126.64 0 0 0 29.988 3.604c7.598 0 15.38-.687 23.128-2.042 6.356-1.111 12.822-2.695 19.218-4.708 6.351-1.999 12.805-4.474 19.184-7.359 12.638-5.713 25.474-13.25 38.153-22.403 12.525-9.042 25.197-19.877 37.662-32.203 12.334-12.197 24.759-26.142 36.93-41.45 12.062-15.173 24.159-32.04 35.953-50.134 11.713-17.97 23.402-37.568 34.742-58.252 22.603-41.227 44.444-87.857 64.919-138.594 20.478-50.746 39.756-106.017 57.298-164.277 17.712-58.825 33.81-121.215 47.848-185.439 14.297-65.413 26.601-133.403 36.571-202.08a3083.396 3083.396 0 0 0 13.488-105.871 3127.008 3127.008 0 0 0 9.986-108.338c8.063-108.098 10.259-213.696 6.526-313.858-3.612-96.926-12.723-187.757-27.08-269.97-7.046-40.344-15.407-78.766-24.852-114.198-9.427-35.369-20.092-68.35-31.697-98.027-5.806-14.847-11.947-29.115-18.251-42.406-6.324-13.332-12.973-26.02-19.763-37.71-6.82-11.743-13.954-22.778-21.205-32.8-7.292-10.077-14.888-19.387-22.577-27.671-8.387-9.035-17.106-17.09-25.917-23.941-8.883-6.908-18.085-12.767-27.349-17.414-9.352-4.692-19.008-8.27-28.7-10.635A126.64 126.64 0 0 0 484.37 1m0-1c193.077 0 313.72 431.97 271.85 993.308-43.527 583.563-246.243 1085.908-452.777 1122.018-7.866 1.375-15.655 2.056-23.3 2.056-193.076 0-313.72-431.97-271.85-993.308C51.82 540.511 254.536 38.167 461.07 2.056 468.936.681 476.726 0 484.37 0z" style="fill:#707070;stroke:none" transform="rotate(-113 656.055 666.674)"/>
        </g>
        <g data-name="타원 14" transform="rotate(-1 17583.085 -98536.977)" style="fill:#fff;stroke:#707070">
            <circle cx="8.482" cy="8.482" r="8.482" style="stroke:none"/>
            <circle cx="8.482" cy="8.482" r="7.982" style="fill:none"/>
        </g>
        <g data-name="타원 15" transform="rotate(-1 70071.465 -34911.094)" style="fill:#fff;stroke:#707070">
            <circle cx="11.31" cy="11.31" r="11.31" style="stroke:none"/>
            <circle cx="11.31" cy="11.31" r="10.81" style="fill:none"/>
        </g>
    </g>
</svg>
