<svg width="64" height="64" viewBox="0 0 64 64" fill="none" xmlns="http://www.w3.org/2000/svg">
<g clip-path="url(#clip0_4697_58081)">
<path d="M48 0H16C7.16344 0 0 7.16344 0 16V48C0 56.8366 7.16344 64 16 64H48C56.8366 64 64 56.8366 64 48V16C64 7.16344 56.8366 0 48 0Z" fill="white"/>
<path d="M48 0.5H16C7.43959 0.5 0.5 7.43959 0.5 16V48C0.5 56.5604 7.43959 63.5 16 63.5H48C56.5604 63.5 63.5 56.5604 63.5 48V16C63.5 7.43959 56.5604 0.5 48 0.5Z" stroke="#F5F5F5"/>
<path d="M36.7223 24.1498C36.6308 19.6049 35.1924 16.5749 33.6625 15.0599C5.10353 22.3319 6.03239 32.5664 10.1122 37.2797C10.7625 28.9132 18.0388 25.4679 25.6077 24.3305C29.917 23.6829 33.3922 23.7834 36.7223 24.1498Z" fill="#1F2128"/>
<path d="M25.4086 24.1495C20.1448 23.3892 17.428 25.7481 16.1368 27.1794C21.5211 55.8882 29.9065 56.4694 36.5355 53.4393C27.3566 52.4294 25.7089 44.6032 25.0777 37.0483C24.7183 32.747 24.8129 27.4144 25.4086 24.1495Z" fill="#1F2128"/>
<path d="M27.2787 39.8505C27.3702 44.3955 28.8085 47.4254 30.3385 48.9404C58.8974 41.6685 57.9686 31.4339 53.8887 26.7206C53.2385 35.0871 45.9622 38.5325 38.3932 39.6699C34.084 40.3175 30.6088 40.2169 27.2787 39.8505Z" fill="#007AFF"/>
<path d="M38.5865 39.8502C43.8503 40.6104 46.5671 38.2515 47.8584 36.8202C42.474 8.11139 34.0886 7.53027 27.4596 10.5603C36.6385 11.5702 38.2862 19.3964 38.9174 26.9513C39.2768 31.2526 39.1822 36.5852 38.5865 39.8502Z" fill="#007AFF"/>
<ellipse cx="32.1298" cy="32.2293" rx="2.03992" ry="2.01998" fill="#1F2128"/>
</g>
<defs>
<clipPath id="clip0_4697_58081">
<rect width="64" height="64" fill="white"/>
</clipPath>
</defs>
</svg>
