<svg xmlns="http://www.w3.org/2000/svg" width="24" height="24" viewBox="0 0 24 24">
    <path style="fill:none" d="M0 0h24v24H0z"/>
    <g style="fill:#fff">
        <path d="M32.873 71.2c-.294 0-.582-.12-.79-.328l-4.037-4.037a1.118 1.118 0 0 1 .79-1.906c.298 0 .578.116.79.327l3.248 3.248 8.439-8.438c.21-.21.491-.327.79-.327a1.118 1.118 0 0 1 .79 1.906l-.178.178-.002-.002-9.05 9.051a1.122 1.122 0 0 1-.79.328z" style="stroke:none" transform="translate(-22.969 -52.989)"/>
        <path d="M42.103 59.99a.864.864 0 0 0-.613.253l-8.616 8.615-3.425-3.426a.867.867 0 0 0-1.226 1.226l4.037 4.037a.865.865 0 0 0 1.226 0l9.228-9.228.001.002a.867.867 0 0 0-.612-1.48m0-.5a1.368 1.368 0 0 1 .966 2.333l-.355.355-.001-.002-8.874 8.874c-.253.254-.606.4-.966.4s-.713-.146-.967-.4L27.87 67.01a1.368 1.368 0 0 1 .967-2.332c.365 0 .708.142.966.4l3.072 3.071 8.262-8.26c.258-.259.602-.4.967-.4z" style="fill:#fff;stroke:none" transform="translate(-22.969 -52.989)"/>
    </g>
</svg>
