<svg xmlns="http://www.w3.org/2000/svg" width="132.998" height="40" viewBox="0 0 132.998 40">
    <path data-name="패스 292" d="M82.006 33.1h-2.822q-.739 0-.739-.706V15.565a.327.327 0 0 0-.37-.37h-3.83a.623.623 0 0 1-.706-.7v-2.289a.623.623 0 0 1 .706-.706h12.7a.623.623 0 0 1 .7.706v2.284a.623.623 0 0 1-.7.7h-3.83c-.269 0-.4.124-.4.37v16.83a.624.624 0 0 1-.706.706" transform="translate(-15.05 -2.301)" style="fill:#1c1c1c"/>
    <path data-name="패스 293" d="M98.843 12.206V32.4a.623.623 0 0 1-.706.7h-2.854a.624.624 0 0 1-.706-.7V12.206a.624.624 0 0 1 .706-.706h2.854a.623.623 0 0 1 .706.706" transform="translate(-19.257 -2.301)" style="fill:#1c1c1c"/>
    <path data-name="패스 294" d="M111.82 33.1H109q-.739 0-.739-.706V15.565a.327.327 0 0 0-.37-.37h-3.83a.623.623 0 0 1-.706-.7v-2.289a.623.623 0 0 1 .706-.706h12.7a.623.623 0 0 1 .706.706v2.284a.623.623 0 0 1-.706.7h-3.829c-.27 0-.4.124-.4.37v16.83a.623.623 0 0 1-.7.706" transform="translate(-21.013 -2.301)" style="fill:#1c1c1c"/>
    <path data-name="패스 295" d="M126.075 33.1h-3.225q-.6 0-.4-.7l5.307-20.19a.964.964 0 0 1 1.008-.706h4.468a.9.9 0 0 1 1.008.706l5.307 20.19q.2.7-.4.7h-3.225a.661.661 0 0 1-.5-.15 1.14 1.14 0 0 1-.2-.554l-.941-3.7h-6.55l-.941 3.7a1.027 1.027 0 0 1-.219.554.667.667 0 0 1-.487.15m4.872-17.535-2.418 9.708h4.961l-2.418-9.708z" transform="translate(-24.821 -2.301)" style="fill:#1c1c1c"/>
    <path data-name="패스 296" d="M151.063 33.1h-2.788a.624.624 0 0 1-.706-.706V12.206a.623.623 0 0 1 .706-.706h2.519a.949.949 0 0 1 .941.47l6.785 12.73h.134V12.2a.623.623 0 0 1 .706-.706h2.788a.623.623 0 0 1 .706.706v20.194a.623.623 0 0 1-.706.706H159.7a1.124 1.124 0 0 1-1.075-.672l-6.718-12.5h-.134v12.466a.624.624 0 0 1-.706.706" transform="translate(-29.856 -2.301)" style="fill:#1c1c1c"/>
    <g>
        <path data-name="패스 298" d="M45.673 19.108 34.641 0H11.547l-.514.891L0 20l7.355 12.739 3.678 6.37.514.892h23.094L42 27.261l3.678-6.37.51-.891z" transform="translate(0 -.001)" style="fill:#05274c"/>
        <path data-name="패스 299" d="M47.935 26.114 45.287 30.7H25.282l2.648-4.586zM32.617 37.07H21.6l2.648-4.586h11.017z" transform="translate(-4.321 -5.224)" style="fill:#85bcfa"/>
        <path data-name="패스 300" d="m20.612 15.892-6.84 11.847-2.648-4.586 6.84-11.847z" transform="translate(-2.225 -2.262)" style="fill:#2470ed"/>
        <path data-name="패스 301" d="m24.418 23.854-10 17.325-2.648-4.586 10-17.326z" transform="translate(-2.354 -3.855)" style="fill:#2470ed"/>
        <path data-name="패스 302" d="m27.01 19.554-10-17.325h5.3l10 17.325zm7.354 0L28.553 9.491h5.3l5.811 10.063z" transform="translate(-3.401 -.446)" style="fill:#fff"/>
    </g>
</svg>
