<svg xmlns="http://www.w3.org/2000/svg" width="126" height="40" viewBox="0 0 126 40">
    <path data-name="패스 1" d="m11.5 0-.512.892L0 20l7.325 12.739 3.663 6.37.512.891h23l7.325-12.738 3.662-6.37L46 20l-.513-.891L34.5 0z" style="fill:#1c1c1c"/>
    <path data-name="패스 2" d="m11.5 0-.512.892L0 20l7.325 12.739 3.663 6.37.512.891h23l7.325-12.738 3.662-6.37L46 20l-.513-.891L34.5 0z" style="fill:#05274c"/>
    <path data-name="패스 3" d="M47.828 26.114 45.191 30.7H25.267l2.633-4.586zM32.572 37.07H21.6l2.637-4.586h10.972z" transform="translate(-4.391 -5.223)" style="fill:#85bcfa"/>
    <path data-name="패스 4" d="m20.573 15.892-6.812 11.847-2.637-4.586 6.812-11.847z" transform="translate(-2.261 -2.261)" style="fill:#2470ed"/>
    <path data-name="패스 5" d="M24.367 23.854 14.4 41.178l-2.637-4.586 9.962-17.326z" transform="translate(-2.392 -3.853)" style="fill:#2470ed"/>
    <path data-name="패스 6" d="M26.969 19.554 17.007 2.229h5.274l9.962 17.325zm7.324 0L28.506 9.491h5.274l5.788 10.063z" transform="translate(-3.457 -.446)" style="fill:#fff"/>
    <path data-name="패스 7" d="M61.709 27.011h2.93a1.686 1.686 0 0 0 1.223-.364 1.7 1.7 0 0 0 .363-1.229v-8.237a1.7 1.7 0 0 0-.363-1.229 1.686 1.686 0 0 0-1.223-.364h-2.93a.262.262 0 0 0-.3.3v10.826a.262.262 0 0 0 .3.297zM58 29.414V13.187a.5.5 0 0 1 .564-.567h6.639a4.463 4.463 0 0 1 3.266 1.148 4.353 4.353 0 0 1 1.169 3.253v8.56a4.353 4.353 0 0 1-1.169 3.253 4.463 4.463 0 0 1-3.266 1.147h-6.639a.5.5 0 0 1-.564-.567zm19.406.567h-.645a4.486 4.486 0 0 1-3.279-1.134 4.373 4.373 0 0 1-1.156-3.266v-4.969a4.373 4.373 0 0 1 1.156-3.267 4.486 4.486 0 0 1 3.279-1.134h6.209q.591 0 .591.567v12.636q0 .567-.591.567h-2.259a.5.5 0 0 1-.566-.567v-.891h-.108a2.043 2.043 0 0 1-1.046 1.093 3.593 3.593 0 0 1-1.585.365zm2.739-5.022v-5.478q0-.3-.323-.3h-2.524a1.635 1.635 0 0 0-1.209.365 1.748 1.748 0 0 0-.349 1.229v4.644a1.748 1.748 0 0 0 .349 1.229 1.635 1.635 0 0 0 1.209.364h.994q1.853-.001 1.853-2.053zm9.221 5.022h-2.285a.5.5 0 0 1-.564-.567V16.781a.5.5 0 0 1 .564-.567h2.285a.5.5 0 0 1 .564.567v.918h.108a2.1 2.1 0 0 1 1.048-1.107 3.487 3.487 0 0 1 1.586-.378h.968q.538 0 .538.567v1.863a.63.63 0 0 1-.121.445.509.509 0 0 1-.417.094h-1.855q-1.855 0-1.855 2.106v8.125a.5.5 0 0 1-.564.567zm6.666-16.092V11.54a.476.476 0 0 1 .538-.54h2.338q.538 0 .538.513v2.376a.476.476 0 0 1-.538.54h-2.339a.476.476 0 0 1-.537-.54zm0 15.525V16.781q0-.567.538-.567h2.311a.5.5 0 0 1 .564.567v12.633a.625.625 0 0 1-.121.459.627.627 0 0 1-.416.108h-2.312a.5.5 0 0 1-.564-.567zm11.449.567h-.887a4.085 4.085 0 0 1-3.131-1.134 4.606 4.606 0 0 1-1.061-3.266v-8.8a.5.5 0 0 1 .564-.567h2.285a.5.5 0 0 1 .564.567v8.64a1.7 1.7 0 0 0 .363 1.229 1.642 1.642 0 0 0 1.2.364h.994q1.855 0 1.855-2.052v-8.181a.5.5 0 0 1 .564-.567h2.254q.591 0 .591.567v12.633q0 .567-.591.567h-2.258a.5.5 0 0 1-.564-.567v-.891h-.108a2.043 2.043 0 0 1-1.048 1.093 3.593 3.593 0 0 1-1.586.365zm14.3 0h-5.107q-.538 0-.538-.567v-1.733a.634.634 0 0 1 .109-.414.571.571 0 0 1 .43-.121h4.489q1.317 0 1.317-.81v-.135q0-.648-1.1-1.242l-2.665-1.485a6.087 6.087 0 0 1-2.016-1.512 3.234 3.234 0 0 1-.645-2.081 3.553 3.553 0 0 1 .994-2.781 4.58 4.58 0 0 1 3.118-.891h4.489q.538 0 .538.567v1.755a.634.634 0 0 1-.108.418.571.571 0 0 1-.43.122h-3.736q-1.317 0-1.317.675v.135q0 .594 1.156 1.215l2.715 1.62a5.684 5.684 0 0 1 1.962 1.552 3.544 3.544 0 0 1 .564 2.093q0 3.62-4.22 3.62z"/>
</svg>
