<svg xmlns="http://www.w3.org/2000/svg" width="64" height="64" viewBox="0 0 64 64">
    <defs>
        <clipPath id="v81n0eppca">
            <path data-name="사각형 5" style="fill:#2a72e5" d="M0 0h31.857v45.282H0z"/>
        </clipPath>
    </defs>
    <g style="fill:#fff;stroke:#f5f5f5">
        <rect width="64" height="64" rx="16" style="stroke:none"/>
        <rect x=".5" y=".5" width="63" height="63" rx="15.5" style="fill:none"/>
    </g>
    <g data-name="그룹 5549">
        <path data-name="패스 231" d="M0 1v30.7h32v-2.75H2.588V1z" transform="translate(16 8.455)" style="fill:#2a72e5"/>
        <path data-name="사각형 1" transform="translate(21.424 9.455)" style="fill:#2a72e5" d="M0 0h2.75v24.394H0z"/>
        <g data-name="그룹 5548">
            <g data-name="그룹 5547" style="clip-path:url(#v81n0eppca)" transform="translate(16 9)">
                <path data-name="패스 232" d="M84.213 23.03H63V0h12.164a9.06 9.06 0 0 1 9.049 9.051zm-18.626-2.588h16.039V9.051a6.47 6.47 0 0 0-6.462-6.464h-9.577z" transform="translate(-52.135 .256)" style="fill:#2a72e5"/>
                <path data-name="패스 233" d="M.25 189.563h.8v7.206h3.9v.7H.25z" transform="translate(-.207 -156.606)" style="fill:#2a72e5"/>
                <path data-name="패스 234" d="M42.2 189.563h.947l2.418 3.638 2.378-3.638h.987l-2.983 4.337v3.568h-.786V193.9z" transform="translate(-34.921 -156.606)" style="fill:#2a72e5"/>
                <path data-name="패스 235" d="M96.71 189.505h1.89a5.073 5.073 0 0 1 1.753.262 3.072 3.072 0 0 1 .554.277 2.911 2.911 0 0 1 .494.4 3.7 3.7 0 0 1 .846 1.33 4.57 4.57 0 0 1 .292 1.623 4.005 4.005 0 0 1-1.078 2.963 4.1 4.1 0 0 1-2.982 1.058H96.71zm1.582.7h-.786v6.521h1.3a2.617 2.617 0 0 0 1.924-.786 3.447 3.447 0 0 0 .917-2.55 4.861 4.861 0 0 0-.036-.6 4.066 4.066 0 0 0-.106-.544 2.918 2.918 0 0 0-.786-1.31 2.433 2.433 0 0 0-.957-.564 5.235 5.235 0 0 0-1.471-.161" transform="translate(-80.031 -156.558)" style="fill:#2a72e5"/>
                <path data-name="패스 236" d="M149.687 189.563h.776l2.942 7.9h-.927l-.947-2.7h-3l-.987 2.7h-.877zm1.622 4.505-1.219-3.558-1.32 3.558z" transform="translate(-121.37 -156.606)" style="fill:#2a72e5"/>
                <path data-name="패스 237" d="M.715 251.287h.855v.121H.854v.51h.686v.112H.854v.631H.715z" transform="translate(-.592 -207.682)" style="fill:#2a72e5"/>
                <path data-name="패스 238" d="M9.194 254.046v.441a.1.1 0 0 0 .013.052.052.052 0 0 0 .048.022h.031l.018-.007.013-.005v.1a.363.363 0 0 1-.063.015.378.378 0 0 1-.049 0 .126.126 0 0 1-.117-.047.236.236 0 0 1-.023-.128.619.619 0 0 1-.046.067.325.325 0 0 1-.046.048.332.332 0 0 1-.212.072.346.346 0 0 1-.222-.075.253.253 0 0 1-.1-.2.241.241 0 0 1 .158-.23.716.716 0 0 1 .153-.049q.1-.021.229-.038l.084-.009a.276.276 0 0 0-.063-.198.233.233 0 0 0-.183-.069.365.365 0 0 0-.09.011.4.4 0 0 0-.09.036l-.054.033a.648.648 0 0 0-.065.049v-.144a.564.564 0 0 1 .32-.1.336.336 0 0 1 .27.11.359.359 0 0 1 .082.242m-.128.184v-.056l-.059.007a1.179 1.179 0 0 0-.308.061.161.161 0 0 0-.119.154.136.136 0 0 0 .014.06.172.172 0 0 0 .039.052.186.186 0 0 0 .06.037.218.218 0 0 0 .08.014.276.276 0 0 0 .208-.1.342.342 0 0 0 .086-.233" transform="translate(-6.987 -209.674)" style="fill:#2a72e5"/>
                <path data-name="패스 239" d="M17.158 254.025v.627h-.126v-.618a.205.205 0 0 0-.072-.161.248.248 0 0 0-.172-.065.3.3 0 0 0-.229.11.377.377 0 0 0-.1.252v.482h-.119v-.937h.11l.005.175a.472.472 0 0 1 .11-.119.379.379 0 0 1 .233-.077.364.364 0 0 1 .252.091.3.3 0 0 1 .1.24" transform="translate(-13.525 -209.674)" style="fill:#2a72e5"/>
                <path data-name="패스 240" d="M24.412 251.287h.135v1.373h-.121l-.012-.152a.663.663 0 0 1-.049.062.418.418 0 0 1-.049.047.328.328 0 0 1-.2.066.376.376 0 0 1-.3-.14.511.511 0 0 1-.117-.34.523.523 0 0 1 .124-.352.4.4 0 0 1 .315-.149.386.386 0 0 1 .147.028.724.724 0 0 1 .057.028l.073.042zm0 .92v-.27a.545.545 0 0 0-.144-.1.322.322 0 0 0-.119-.024.277.277 0 0 0-.233.121.433.433 0 0 0-.084.264.394.394 0 0 0 .093.268.262.262 0 0 0 .2.1.251.251 0 0 0 .2-.1.393.393 0 0 0 .084-.259" transform="translate(-19.609 -207.682)" style="fill:#2a72e5"/>
                <path data-name="패스 241" d="M31.886 254.675a.444.444 0 0 1-.317-.131.474.474 0 0 1-.145-.359.5.5 0 0 1 .128-.349.439.439 0 0 1 .646 0 .53.53 0 0 1-.011.706.408.408 0 0 1-.3.133m-.012-.116a.3.3 0 0 0 .224-.105.394.394 0 0 0 .095-.272.385.385 0 0 0-.1-.277.288.288 0 0 0-.215-.1.277.277 0 0 0-.215.1.438.438 0 0 0 0 .55.279.279 0 0 0 .215.1" transform="translate(-26.005 -209.674)" style="fill:#2a72e5"/>
                <path data-name="패스 242" d="M40.913 254.051v.6h-.128v-.631a.207.207 0 0 0-.068-.161.2.2 0 0 0-.137-.052.273.273 0 0 0-.21.109.394.394 0 0 0-.091.265v.471h-.128v-.631a.2.2 0 0 0-.065-.152.193.193 0 0 0-.14-.061.265.265 0 0 0-.2.1.4.4 0 0 0-.1.277v.466h-.128v-.937h.119l.005.149a.352.352 0 0 1 .145-.13.391.391 0 0 1 .17-.04.335.335 0 0 1 .224.077.26.26 0 0 1 .084.116.39.39 0 0 1 .1-.117.367.367 0 0 1 .224-.075.3.3 0 0 1 .231.089.382.382 0 0 1 .093.268" transform="translate(-32.702 -209.674)" style="fill:#2a72e5"/>
                <path data-name="패스 243" d="M56.516 254.046v.441a.1.1 0 0 0 .013.052.052.052 0 0 0 .048.022h.037l.018-.007.013-.005v.1a.363.363 0 0 1-.063.015.378.378 0 0 1-.049 0 .126.126 0 0 1-.117-.047.236.236 0 0 1-.023-.128.619.619 0 0 1-.046.067.325.325 0 0 1-.046.048.332.332 0 0 1-.212.072.346.346 0 0 1-.222-.075.253.253 0 0 1-.1-.2.241.241 0 0 1 .158-.23.716.716 0 0 1 .153-.049q.1-.021.229-.038l.084-.009a.276.276 0 0 0-.062-.192.233.233 0 0 0-.183-.069.365.365 0 0 0-.09.011.4.4 0 0 0-.09.036l-.054.033a.648.648 0 0 0-.065.049v-.144a.564.564 0 0 1 .32-.1.336.336 0 0 1 .27.11.359.359 0 0 1 .082.242m-.128.184v-.056l-.059.007a1.178 1.178 0 0 0-.308.061.161.161 0 0 0-.119.154.136.136 0 0 0 .014.06.172.172 0 0 0 .039.052.186.186 0 0 0 .06.037.218.218 0 0 0 .08.014.276.276 0 0 0 .208-.1.342.342 0 0 0 .086-.233" transform="translate(-46.148 -209.674)" style="fill:#2a72e5"/>
                <path data-name="패스 244" d="M63.564 254.572v-.153a.67.67 0 0 0 .221.123.511.511 0 0 0 .065.013.442.442 0 0 0 .065 0 .3.3 0 0 0 .177-.049.147.147 0 0 0 .072-.117.124.124 0 0 0-.026-.072.389.389 0 0 0-.2-.082 1.464 1.464 0 0 1-.252-.079.217.217 0 0 1-.123-.2.23.23 0 0 1 .1-.193.419.419 0 0 1 .257-.077.594.594 0 0 1 .126.012.649.649 0 0 1 .105.032.46.46 0 0 1 .091.05v.152a.665.665 0 0 0-.154-.1.412.412 0 0 0-.17-.036.286.286 0 0 0-.154.04.12.12 0 0 0-.067.105q0 .086.158.137l.145.042.145.042a.222.222 0 0 1 .159.207.261.261 0 0 1-.11.207.438.438 0 0 1-.278.088.661.661 0 0 1-.144-.016.679.679 0 0 1-.214-.088" transform="translate(-52.602 -209.674)" style="fill:#2a72e5"/>
                <path data-name="패스 245" d="M76.633 254.046v.441a.1.1 0 0 0 .013.052.052.052 0 0 0 .048.022h.031l.018-.007.013-.005v.1a.363.363 0 0 1-.063.015.377.377 0 0 1-.049 0 .126.126 0 0 1-.117-.047.236.236 0 0 1-.023-.128.617.617 0 0 1-.046.067.324.324 0 0 1-.046.048.332.332 0 0 1-.212.072.346.346 0 0 1-.222-.075.254.254 0 0 1-.1-.2.241.241 0 0 1 .158-.23.715.715 0 0 1 .153-.049q.1-.021.229-.038l.084-.009a.276.276 0 0 0-.062-.192.233.233 0 0 0-.183-.069.365.365 0 0 0-.09.011.4.4 0 0 0-.09.036l-.054.033a.648.648 0 0 0-.065.049v-.144a.564.564 0 0 1 .32-.1.336.336 0 0 1 .27.11.359.359 0 0 1 .082.242m-.128.184v-.056l-.059.007a1.178 1.178 0 0 0-.308.061.161.161 0 0 0-.119.154.136.136 0 0 0 .014.06.172.172 0 0 0 .039.052.186.186 0 0 0 .06.037.219.219 0 0 0 .08.014.276.276 0 0 0 .208-.1.342.342 0 0 0 .086-.233" transform="translate(-62.795 -209.674)" style="fill:#2a72e5"/>
                <path data-name="패스 246" d="M89.886 251.275v.177a.9.9 0 0 0-.092-.068.629.629 0 0 0-.092-.049.5.5 0 0 0-.214-.049.361.361 0 0 0-.226.068.206.206 0 0 0-.091.166q0 .14.207.21l.192.064.194.062a.319.319 0 0 1 .208.3.375.375 0 0 1-.149.31.557.557 0 0 1-.352.11.691.691 0 0 1-.27-.054 1.013 1.013 0 0 1-.178-.1v-.179a.83.83 0 0 0 .273.17.437.437 0 0 0 .089.024.554.554 0 0 0 .087.007.391.391 0 0 0 .236-.07.237.237 0 0 0 .107-.2q0-.151-.2-.229-.1-.03-.193-.061l-.189-.061a.307.307 0 0 1-.2-.291.327.327 0 0 1 .13-.268.515.515 0 0 1 .333-.107.7.7 0 0 1 .245.046.832.832 0 0 1 .152.073" transform="translate(-73.67 -207.574)" style="fill:#2a72e5"/>
                <path data-name="패스 247" d="M97.831 254.675a.444.444 0 0 1-.317-.131.474.474 0 0 1-.145-.359.5.5 0 0 1 .128-.349.439.439 0 0 1 .646 0 .53.53 0 0 1-.011.706.408.408 0 0 1-.3.133m-.012-.116a.3.3 0 0 0 .224-.105.4.4 0 0 0 .095-.272.385.385 0 0 0-.1-.277.288.288 0 0 0-.215-.1.277.277 0 0 0-.215.1.438.438 0 0 0 0 .55.279.279 0 0 0 .215.1" transform="translate(-80.577 -209.674)" style="fill:#2a72e5"/>
                <path data-name="패스 248" d="M106.094 253.8v.165a.629.629 0 0 0-.2-.133.248.248 0 0 0-.061-.017.457.457 0 0 0-.063 0 .3.3 0 0 0-.238.109.4.4 0 0 0-.093.266.4.4 0 0 0 .1.27.312.312 0 0 0 .242.107.355.355 0 0 0 .166-.039.618.618 0 0 0 .152-.118v.166a.785.785 0 0 1-.168.082.484.484 0 0 1-.152.025.458.458 0 0 1-.336-.14.515.515 0 0 1 0-.7.45.45 0 0 1 .34-.144.521.521 0 0 1 .193.035.638.638 0 0 1 .126.068" transform="translate(-87.141 -209.674)" style="fill:#2a72e5"/>
                <path data-name="패스 249" d="M112.666 251.521a.084.084 0 0 1 .061.025.1.1 0 0 1 .024.07.1.1 0 0 1-.023.07.082.082 0 0 1-.063.024.074.074 0 0 1-.062-.028.1.1 0 0 1-.022-.065.091.091 0 0 1 .026-.077.1.1 0 0 1 .058-.019m-.061.4h.126v.937h-.13z" transform="translate(-93.166 -207.876)" style="fill:#2a72e5"/>
                <path data-name="패스 250" d="M117.03 254.046v.441a.1.1 0 0 0 .013.052.052.052 0 0 0 .048.022h.031l.018-.007.013-.005v.1a.363.363 0 0 1-.063.015.377.377 0 0 1-.049 0 .126.126 0 0 1-.117-.047.236.236 0 0 1-.023-.128.645.645 0 0 1-.046.067.325.325 0 0 1-.046.048.332.332 0 0 1-.212.072.347.347 0 0 1-.222-.075.254.254 0 0 1-.1-.2.241.241 0 0 1 .158-.23.716.716 0 0 1 .153-.049q.1-.021.229-.038l.084-.009a.277.277 0 0 0-.062-.192.233.233 0 0 0-.183-.069.365.365 0 0 0-.09.011.4.4 0 0 0-.09.036l-.054.033a.65.65 0 0 0-.065.049v-.144a.564.564 0 0 1 .32-.1.336.336 0 0 1 .27.11.359.359 0 0 1 .082.242m-.128.184v-.056l-.059.007a1.179 1.179 0 0 0-.308.061.161.161 0 0 0-.119.154.136.136 0 0 0 .014.06.169.169 0 0 0 .039.052.186.186 0 0 0 .06.037.218.218 0 0 0 .08.014.276.276 0 0 0 .208-.1.342.342 0 0 0 .086-.233" transform="translate(-96.225 -209.674)" style="fill:#2a72e5"/>
                <path data-name="사각형 2" transform="translate(21.416 43.605)" style="fill:#2a72e5" d="M0 0h.126v1.373H0z"/>
                <path data-name="패스 251" d="M134.174 251.287v.177a.673.673 0 0 0-.149-.109.559.559 0 0 0-.264-.07.448.448 0 0 0-.352.173.589.589 0 0 0-.109.188.651.651 0 0 0-.036.217.6.6 0 0 0 .147.406.448.448 0 0 0 .354.17.558.558 0 0 0 .2-.039.844.844 0 0 0 .209-.122v.17a.914.914 0 0 1-.426.126.585.585 0 0 1-.433-.191.706.706 0 0 1-.2-.513.73.73 0 0 1 .186-.506.606.606 0 0 1 .468-.208.655.655 0 0 1 .209.033.814.814 0 0 1 .2.1" transform="translate(-110.159 -207.574)" style="fill:#2a72e5"/>
                <path data-name="패스 252" d="M142.792 254.046v.441a.1.1 0 0 0 .013.052.052.052 0 0 0 .048.022h.031l.018-.007.013-.005v.1a.359.359 0 0 1-.063.015.378.378 0 0 1-.049 0 .126.126 0 0 1-.117-.047.236.236 0 0 1-.023-.128.621.621 0 0 1-.046.067.325.325 0 0 1-.046.048.332.332 0 0 1-.212.072.347.347 0 0 1-.222-.075.254.254 0 0 1-.1-.2.241.241 0 0 1 .158-.23.716.716 0 0 1 .153-.049q.1-.021.229-.038l.084-.009a.277.277 0 0 0-.062-.192.234.234 0 0 0-.183-.069.365.365 0 0 0-.09.011.4.4 0 0 0-.09.036l-.054.033a.646.646 0 0 0-.065.049v-.144a.563.563 0 0 1 .32-.1.335.335 0 0 1 .27.11.359.359 0 0 1 .082.242m-.128.184v-.056l-.06.007a1.175 1.175 0 0 0-.308.061.161.161 0 0 0-.119.154.136.136 0 0 0 .014.06.172.172 0 0 0 .039.052.186.186 0 0 0 .06.037.219.219 0 0 0 .08.014.276.276 0 0 0 .208-.1.342.342 0 0 0 .086-.233" transform="translate(-117.544 -209.674)" style="fill:#2a72e5"/>
                <path data-name="패스 253" d="M150.064 254.568v.385h-.123v-1.238h.114l.007.17a.428.428 0 0 1 .133-.143.331.331 0 0 1 .182-.048.365.365 0 0 1 .291.137.466.466 0 0 1 .089.153.573.573 0 0 1 .03.19.509.509 0 0 1-.131.359.412.412 0 0 1-.313.142.371.371 0 0 1-.168-.038.255.255 0 0 1-.049-.026l-.061-.042m0-.415v.28q.028.026.052.045c.016.012.03.023.043.031a.337.337 0 0 0 .173.051.282.282 0 0 0 .229-.11.439.439 0 0 0 .091-.28.4.4 0 0 0-.084-.258.258.258 0 0 0-.21-.1.261.261 0 0 0-.217.114.376.376 0 0 0-.077.231" transform="translate(-124.082 -209.674)" style="fill:#2a72e5"/>
                <path data-name="패스 254" d="M157.5 251.521a.084.084 0 0 1 .061.025.1.1 0 0 1 .024.07.1.1 0 0 1-.023.07.083.083 0 0 1-.063.024.074.074 0 0 1-.062-.028.1.1 0 0 1-.022-.065.091.091 0 0 1 .026-.077.1.1 0 0 1 .058-.019m-.061.4h.126v.937h-.126z" transform="translate(-130.268 -207.876)" style="fill:#2a72e5"/>
                <path data-name="패스 255" d="M161.069 252.211h.116v.275h.247v.114h-.247v.6a.161.161 0 0 0 .027.105.119.119 0 0 0 .094.032.214.214 0 0 0 .066-.009.713.713 0 0 0 .061-.023v.114a.656.656 0 0 1-.067.017.412.412 0 0 1-.08.008.252.252 0 0 1-.163-.047.185.185 0 0 1-.065-.158v-.639h-.158v-.114h.158z" transform="translate(-133.15 -208.447)" style="fill:#2a72e5"/>
                <path data-name="패스 256" d="M167.367 254.046v.441a.1.1 0 0 0 .013.052.052.052 0 0 0 .048.022h.031l.018-.007.013-.005v.1a.365.365 0 0 1-.063.015.377.377 0 0 1-.049 0 .126.126 0 0 1-.117-.047.236.236 0 0 1-.023-.128.617.617 0 0 1-.046.067.324.324 0 0 1-.046.048.332.332 0 0 1-.212.072.346.346 0 0 1-.222-.075.253.253 0 0 1-.1-.2.242.242 0 0 1 .158-.23.716.716 0 0 1 .153-.049q.1-.021.229-.038l.084-.009a.277.277 0 0 0-.062-.192.234.234 0 0 0-.183-.069.363.363 0 0 0-.09.011.4.4 0 0 0-.09.036l-.054.033a.648.648 0 0 0-.065.049v-.144a.564.564 0 0 1 .32-.1.335.335 0 0 1 .27.11.359.359 0 0 1 .082.242m-.128.184v-.056l-.059.007a1.177 1.177 0 0 0-.308.061.161.161 0 0 0-.119.154.136.136 0 0 0 .014.06.172.172 0 0 0 .039.052.187.187 0 0 0 .06.037.218.218 0 0 0 .08.014.277.277 0 0 0 .209-.1.342.342 0 0 0 .086-.233" transform="translate(-137.881 -209.674)" style="fill:#2a72e5"/>
                <path data-name="사각형 3" transform="translate(30.097 43.605)" style="fill:#2a72e5" d="M0 0h.126v1.373H0z"/>
                <path data-name="사각형 4" transform="translate(.058 42.241)" style="fill:#2a72e5" d="M0 0h30.491v.365H0z"/>
            </g>
        </g>
    </g>
</svg>
