<svg xmlns="http://www.w3.org/2000/svg" width="20" height="20" viewBox="0 0 20 20">
    <path style="fill:none" d="M0 0h20v20H0z"/>
    <path data-name="패스 30" d="M362.217 252.253c.2-1.461 10.873-9.438 8.36-8.107l-6.777 3.924c-4.011 2.436-3.72 2.048-2.871 4.947a10.338 10.338 0 0 0 .676 2.149c.473.565.606-2.874.612-2.914m-3.755-1.577c.384.151.3.1.43.545.289.981.589 1.886.883 2.859.993 3.3.87 3.32 2.284 2.17 2.332-1.9 2.116-2.084 3.455-1.139l3.86 2.815c1.1.83 1.155-.85 1.344-1.749l3.094-14.756c.069-.287.029-.464-.077-.564-.224-.209-.739-.075-1.151.092l-16.45 6.344c-4.934 1.854-.822 2.142 2.328 3.383z" transform="translate(-353.845 -239.49)" style="fill:#1c1c1c;fill-rule:evenodd"/>
</svg>
