<svg xmlns="http://www.w3.org/2000/svg" width="20" height="20" viewBox="0 0 20 20">
    <path style="fill:none" d="M0 0h20v20H0z"/>
    <path data-name="패스 266" d="M36 40.63a.667.667 0 0 1-.667.667H34v1.333a.667.667 0 0 1-1.333 0V41.3h-1.331a.667.667 0 0 1 0-1.333h1.333V38.63a.667.667 0 0 1 1.333 0v1.333h1.333a.667.667 0 0 1 .665.667zm-4.823 4.9a.667.667 0 0 1-1.022.858 8.349 8.349 0 0 0-12.978 0 .667.667 0 1 1-1.021-.858 9.923 9.923 0 0 1 4.514-3.1 5.667 5.667 0 1 1 5.992 0 9.93 9.93 0 0 1 4.518 3.104zm-7.511-3.571a4.333 4.333 0 1 0-4.333-4.333 4.333 4.333 0 0 0 4.336 4.337z" transform="translate(-16.002 -29.96)" style="fill:#1c1c1c"/>
</svg>
