<svg id="navi_icon_kakao" xmlns="http://www.w3.org/2000/svg" xmlns:xlink="http://www.w3.org/1999/xlink" width="14" height="14" viewBox="0 0 14 14">
  <defs>
    <style>
      .cls-1 {
        fill: #2a72e5;
      }

      .cls-2 {
        clip-path: url(#clip-path);
      }
    </style>
    <clipPath id="clip-path">
      <rect id="사각형_13" data-name="사각형 13" class="cls-1" width="14" height="14"/>
    </clipPath>
  </defs>
  <g id="그룹_6566" data-name="그룹 6566" class="cls-2">
    <path id="패스_267" data-name="패스 267" class="cls-1" d="M12.906,0H1.094A1.094,1.094,0,0,0,0,1.094V12.906A1.094,1.094,0,0,0,1.094,14H12.906A1.094,1.094,0,0,0,14,12.906V1.094A1.094,1.094,0,0,0,12.906,0M7,10.938a7.205,7.205,0,0,1-1.01-.071c-.328.231-2.224,1.563-2.4,1.588a.172.172,0,0,1-.136-.008c-.062-.037-.051-.133-.051-.133.019-.128.492-1.761.579-2.061a4.373,4.373,0,0,1-2.666-3.8C1.313,3.976,3.859,1.969,7,1.969H7c3.141,0,5.688,2.008,5.688,4.484S10.141,10.938,7,10.938"/>
    <path id="패스_268" data-name="패스 268" class="cls-1" d="M1615.846,914.383l.748-.748a.256.256,0,0,0,.072-.2.332.332,0,0,0-.322-.3.255.255,0,0,0-.182.073l-.915.915v-.705a.328.328,0,0,0-.656,0v2.245a.328.328,0,1,0,.656,0v-.716l.114-.114.77,1.02a.328.328,0,0,0,.524-.4Z" transform="translate(-1605.548 -907.973)"/>
    <path id="패스_269" data-name="패스 269" class="cls-1" d="M1292.871,915.342h-.7v-1.928a.335.335,0,0,0-.67,0v2.229a.308.308,0,0,0,.314.3h1.053a.3.3,0,1,0,0-.6" transform="translate(-1284.272 -907.973)"/>
    <path id="패스_270" data-name="패스 270" class="cls-1" d="M483.281,913.407a.322.322,0,0,0-.322-.321h-1.68a.321.321,0,1,0,0,.643h.512v1.949a.328.328,0,0,0,.656,0v-1.949h.512a.322.322,0,0,0,.322-.321" transform="translate(-478.264 -907.973)"/>
    <path id="패스_271" data-name="패스 271" class="cls-1" d="M810.71,913.419a.457.457,0,0,0-.875,0l-.785,2.066c-.1.31-.013.424.078.466a.5.5,0,0,0,.209.045.269.269,0,0,0,.273-.145l.163-.426h1l.162.425a.269.269,0,0,0,.273.145h0a.5.5,0,0,0,.209-.045c.09-.042.177-.156.078-.467Zm-.765,1.425.328-.931.328.931Z" transform="translate(-804.476 -907.982)"/>
  </g>
</svg>
