<svg xmlns="http://www.w3.org/2000/svg" width="14" height="14" viewBox="0 0 14 14">
    <path style="fill:none" d="M0 0h14v14H0z"/>
    <path data-name="패스 32" d="M182.663-59.025a5.927 5.927 0 0 0-3.368-1.259l-.168.192a7.976 7.976 0 0 1 2.985 1.522 9.791 9.791 0 0 0-3.609-1.151 10.148 10.148 0 0 0-2.421.024 1.166 1.166 0 0 0-.2.024 9 9 0 0 0-2.72.755c-.444.2-.707.347-.707.347a8.086 8.086 0 0 1 3.152-1.57l-.12-.144a5.927 5.927 0 0 0-3.368 1.259 16.047 16.047 0 0 0-1.726 6.988 4.347 4.347 0 0 0 3.657 1.822s.443-.539.8-.995a3.728 3.728 0 0 1-2.1-1.414s.12.084.336.2a.173.173 0 0 0 .047.036c.037.024.073.036.108.059a6.942 6.942 0 0 0 .875.408 10.1 10.1 0 0 0 1.761.515 8.4 8.4 0 0 0 3.1.012 7.9 7.9 0 0 0 1.739-.515 6.91 6.91 0 0 0 1.378-.707 3.783 3.783 0 0 1-2.169 1.426c.36.455.791.97.791.97a4.381 4.381 0 0 0 3.667-1.822 16.053 16.053 0 0 0-1.72-6.982zm-7.515 5.873a1.285 1.285 0 0 1-1.222-1.33 1.277 1.277 0 0 1 1.222-1.331 1.269 1.269 0 0 1 1.222 1.331 1.277 1.277 0 0 1-1.222 1.33zm4.375 0a1.285 1.285 0 0 1-1.222-1.33 1.277 1.277 0 0 1 1.222-1.331 1.277 1.277 0 0 1 1.222 1.331 1.277 1.277 0 0 1-1.222 1.33z" transform="translate(-170.389 62.384)" style="fill:#2a72e5"/>
</svg>
