<svg xmlns="http://www.w3.org/2000/svg" width="20" height="20" viewBox="0 0 20 20">
    <defs>
        <clipPath id="wwfp0wr99a">
            <path data-name="사각형 13" style="fill:#1c1c1c" d="M0 0h20v20H0z"/>
        </clipPath>
    </defs>
    <g data-name="그룹 6566" style="clip-path:url(#wwfp0wr99a)">
        <path data-name="패스 267" d="M18.438 0H1.562A1.562 1.562 0 0 0 0 1.563v16.875A1.562 1.562 0 0 0 1.562 20h16.876A1.562 1.562 0 0 0 20 18.438V1.563A1.562 1.562 0 0 0 18.438 0M10 15.625a10.293 10.293 0 0 1-1.443-.1c-.469.33-3.177 2.233-3.433 2.269a.245.245 0 0 1-.194-.012c-.089-.052-.073-.19-.073-.19.027-.183.7-2.515.827-2.944a6.247 6.247 0 0 1-3.809-5.429c0-3.538 3.638-6.406 8.125-6.406s8.125 2.868 8.125 6.406-3.638 6.406-8.125 6.406" style="fill:#1c1c1c"/>
        <path data-name="패스 268" d="m1616.384 914.939 1.068-1.068a.365.365 0 0 0 .1-.285.474.474 0 0 0-.46-.436.364.364 0 0 0-.26.1l-1.308 1.308v-1.008a.469.469 0 0 0-.937 0v3.207a.469.469 0 0 0 .938 0v-1.023l.163-.163 1.1 1.457a.469.469 0 1 0 .748-.565z" transform="translate(-1601.673 -905.781)" style="fill:#1c1c1c"/>
        <path data-name="패스 269" d="M1293.457 916.309h-1v-2.754a.479.479 0 0 0-.957 0v3.184a.44.44 0 0 0 .449.43h1.5a.43.43 0 1 0 0-.859" transform="translate(-1281.172 -905.781)" style="fill:#1c1c1c"/>
        <path data-name="패스 270" d="M484.277 913.545a.46.46 0 0 0-.46-.459h-2.4a.459.459 0 1 0 0 .918h.731v2.785a.469.469 0 0 0 .938 0V914h.731a.46.46 0 0 0 .46-.459" transform="translate(-477.109 -905.781)" style="fill:#1c1c1c"/>
        <path data-name="패스 271" d="M811.44 913.558a.653.653 0 0 0-1.25 0l-1.121 2.951c-.142.442-.018.606.111.666a.718.718 0 0 0 .3.065.384.384 0 0 0 .39-.207l.232-.608h1.429l.232.608a.384.384 0 0 0 .39.207.717.717 0 0 0 .3-.065c.129-.059.253-.223.111-.667zm-1.093 2.036.468-1.33.468 1.33z" transform="translate(-802.534 -905.79)" style="fill:#1c1c1c"/>
    </g>
</svg>
