<svg xmlns="http://www.w3.org/2000/svg" width="14" height="14" viewBox="0 0 14 14">
    <path style="fill:none" d="M0 0h14v14H0z"/>
    <path data-name="패스 266" d="M30 38.029a.467.467 0 0 1-.467.467H28.6v.933a.467.467 0 0 1-.933 0V38.5h-.933a.467.467 0 1 1 0-.933h.933v-.933a.467.467 0 1 1 .933 0v.933h.933a.467.467 0 0 1 .467.462zm-3.376 3.433a.467.467 0 0 1-.715.6 5.844 5.844 0 0 0-9.085 0 .467.467 0 1 1-.715-.6 6.946 6.946 0 0 1 3.16-2.168 3.967 3.967 0 1 1 4.194 0 6.951 6.951 0 0 1 3.164 2.168zm-5.258-2.5a3.033 3.033 0 1 0-3.033-3.033 3.033 3.033 0 0 0 3.036 3.033z" transform="translate(-16.002 -29.96)" style="fill:#2a72e5"/>
</svg>
