<svg xmlns="http://www.w3.org/2000/svg" width="20" height="20" viewBox="0 0 20 20">
    <path style="fill:none" d="M0 0h20v20H0z"/>
    <path data-name="패스 262" d="M56.154 24H43.077A3.077 3.077 0 0 0 40 27.077v16.154a.769.769 0 0 0 .769.769h13.846a.769.769 0 0 0 0-1.538H41.538a1.538 1.538 0 0 1 1.538-1.538h13.078a.769.769 0 0 0 .769-.769V24.769a.769.769 0 0 0-.769-.769zm-8.462 1.538h4.615v6.923l-1.847-1.385a.769.769 0 0 0-.923 0l-1.845 1.385zm7.692 13.846H43.077a3.06 3.06 0 0 0-1.538.413v-12.72a1.538 1.538 0 0 1 1.538-1.538h3.077V34a.769.769 0 0 0 1.231.615L50 32.654l2.616 1.962a.769.769 0 0 0 1.23-.616v-8.462h1.538z" transform="translate(-38.571 -24)" style="fill:#1c1c1c"/>
</svg>
