<svg xmlns="http://www.w3.org/2000/svg" width="20" height="20" viewBox="0 0 20 20">
    <path style="fill:none" d="M0 0h20v20H0z"/>
    <path data-name="패스 265" d="M27.728 56.54a.667.667 0 0 1-.933-.133 4.3 4.3 0 0 0-3.466-1.733.667.667 0 0 1 0-1.333 2 2 0 1 0-1.936-2.5.667.667 0 0 1-1.292-.333 3.333 3.333 0 1 1 5.477 3.292 5.661 5.661 0 0 1 2.286 1.806.667.667 0 0 1-.136.934zm-4.489 5.133a.667.667 0 1 1-1.153.667 4.749 4.749 0 0 0-8.179 0 .667.667 0 1 1-1.153-.667 6 6 0 0 1 2.811-2.493 4 4 0 1 1 4.863 0 6 6 0 0 1 2.811 2.493zm-5.243-3a2.666 2.666 0 1 0-2.666-2.666A2.666 2.666 0 0 0 18 58.673zm-4.666-4.666a.667.667 0 0 0-.667-.667 2 2 0 1 1 1.936-2.5.667.667 0 0 0 1.292-.333 3.333 3.333 0 1 0-5.478 3.293 5.661 5.661 0 0 0-2.283 1.805.667.667 0 1 0 1.067.8 4.3 4.3 0 0 1 3.466-1.733.667.667 0 0 0 .667-.665z" transform="translate(-7.997 -45.151)" style="fill:#1c1c1c"/>
</svg>
