<svg xmlns="http://www.w3.org/2000/svg" width="14" height="14" viewBox="0 0 14 14">
    <path style="fill:none" d="M0 0h14v14H0z"/>
    <path data-name="패스 265" d="M21.808 53.98a.467.467 0 0 1-.653-.093 3.01 3.01 0 0 0-2.426-1.213.467.467 0 0 1 0-.933 1.4 1.4 0 1 0-1.356-1.75.467.467 0 1 1-.9-.233 2.333 2.333 0 1 1 3.834 2.3 3.963 3.963 0 0 1 1.6 1.265.467.467 0 0 1-.1.654zm-3.143 3.593a.467.467 0 1 1-.807.467 3.325 3.325 0 0 0-5.725 0 .467.467 0 1 1-.807-.467 4.2 4.2 0 0 1 1.968-1.745 2.8 2.8 0 1 1 3.4 0 4.2 4.2 0 0 1 1.968 1.745zM15 55.473a1.866 1.866 0 1 0-1.866-1.866A1.866 1.866 0 0 0 15 55.473zm-3.27-3.266a.467.467 0 0 0-.467-.467 1.4 1.4 0 1 1 1.356-1.75.467.467 0 1 0 .9-.233 2.333 2.333 0 1 0-3.834 2.3 3.963 3.963 0 0 0-1.6 1.265.467.467 0 1 0 .747.561 3.01 3.01 0 0 1 2.426-1.213.467.467 0 0 0 .472-.463z" transform="translate(-7.997 -46.008)" style="fill:#7a7e87"/>
</svg>
