<svg xmlns="http://www.w3.org/2000/svg" width="14" height="14" viewBox="0 0 14 14">
    <path style="fill:none" d="M0 0h14v14H0z"/>
    <path data-name="패스 264" d="m36.483 19.153-5.5-3.01a.993.993 0 0 0-.96 0l-5.5 3.011a1 1 0 0 0-.52.875v5.979a1 1 0 0 0 .52.875l5.5 3.011a.993.993 0 0 0 .96 0l5.5-3.011a1 1 0 0 0 .52-.875V20.03a1 1 0 0 0-.52-.877zM30.5 17.018l5.023 2.751L30.5 22.52l-5.023-2.751zM25 20.644l5 2.737v5.363l-5-2.734zm6 8.1v-5.36l5-2.739v5.363z" transform="translate(-23.5 -16.02)" style="fill:#7a7e87"/>
</svg>
