<svg xmlns="http://www.w3.org/2000/svg" width="20" height="20" viewBox="0 0 20 20">
    <path d="m27.571 32.085-3.333-3.333a.833.833 0 0 1 0-1.179l3.333-3.333a.834.834 0 0 1 1.179 1.179l-2.745 2.744 2.745 2.744a.834.834 0 0 1-1.179 1.179zm4.167 0a.833.833 0 0 0 1.179 0l3.333-3.333a.833.833 0 0 0 0-1.179l-3.333-3.333a.834.834 0 0 0-1.179 1.179l2.745 2.744-2.745 2.744a.833.833 0 0 0 0 1.179zm10.589-6.423h-2.5a.833.833 0 0 0 0 1.667h2.5v15h-15v-6.667a.833.833 0 1 0-1.667 0v6.666A1.667 1.667 0 0 0 27.328 44h15a1.667 1.667 0 0 0 1.667-1.667v-15a1.667 1.667 0 0 0-1.668-1.67z" transform="translate(-23.994 -23.996)" style="fill:#1c1c1c"/>
</svg>
