<svg xmlns="http://www.w3.org/2000/svg" width="20" height="20" viewBox="0 0 20 20">
    <path d="M50.333 32H33.667A1.667 1.667 0 0 0 32 33.667v16.666A1.667 1.667 0 0 0 33.667 52h16.666A1.667 1.667 0 0 0 52 50.333V33.667A1.667 1.667 0 0 0 50.333 32zm0 18.333H33.667V33.667h16.666zm-12.256-4.41a.833.833 0 0 1 0-1.179l5.245-5.244h-2.989a.833.833 0 0 1 0-1.667h5a.833.833 0 0 1 .833.833v5a.833.833 0 1 1-1.667 0v-2.988l-5.244 5.245a.833.833 0 0 1-1.179 0z" transform="translate(-32 -32)" style="fill:#1c1c1c"/>
</svg>
