<svg xmlns="http://www.w3.org/2000/svg" width="14" height="14" viewBox="0 0 14 14">
    <path d="M44.833 32H33.167A1.167 1.167 0 0 0 32 33.167v11.666A1.167 1.167 0 0 0 33.167 46h11.666A1.167 1.167 0 0 0 46 44.833V33.167A1.167 1.167 0 0 0 44.833 32zm0 12.833H33.167V33.167h11.666zm-8.579-3.087a.583.583 0 0 1 0-.825l3.671-3.671h-2.092a.583.583 0 0 1 0-1.167h3.5a.583.583 0 0 1 .583.583v3.5a.583.583 0 1 1-1.167 0v-2.091l-3.671 3.671a.583.583 0 0 1-.825 0z" transform="translate(-32 -32)" style="fill:#7a7e87"/>
</svg>
