<svg xmlns="http://www.w3.org/2000/svg" width="14" height="14" viewBox="0 0 14 14">
    <path style="fill:none" d="M0 0h14v14H0z"/>
    <path data-name="패스 30" d="M359.706 248.286c.143-.957 7.611-6.183 5.852-5.312l-4.744 2.572c-2.808 1.6-2.6 1.341-2.01 3.241a6.461 6.461 0 0 0 .473 1.408c.331.37.424-1.883.429-1.909m-2.629-1.034c.269.1.21.065.3.357.2.643.412 1.236.618 1.873.695 2.163.609 2.175 1.6 1.422 1.633-1.243 1.481-1.365 2.418-.746l2.7 1.844c.768.544.808-.557.941-1.146l2.166-9.668c.048-.188.02-.3-.054-.369-.157-.137-.517-.049-.806.061l-11.515 4.156c-3.445 1.215-.573 1.403 1.632 2.216z" transform="translate(-353.845 -239.49)" style="fill:#2a72e5;fill-rule:evenodd"/>
</svg>
