<svg xmlns="http://www.w3.org/2000/svg" width="14" height="14" viewBox="0 0 14 14">
    <path style="fill:none" d="M0 0h14v14H0z"/>
    <path data-name="패스 31" d="M266 254.712a7 7 0 1 0-9.278 6.621.673.673 0 0 0 .36-.521c0-.385-.009-1.376-.009-1.376a4.86 4.86 0 0 1-.738.052 1.585 1.585 0 0 1-1.6-1.082 1.9 1.9 0 0 0-.787-.932c-.181-.117-.222-.255-.013-.293.967-.181 1.214 1.09 1.86 1.293a1.815 1.815 0 0 0 1.348-.108 1.4 1.4 0 0 1 .556-.9 3.625 3.625 0 0 1-3.122-1.637l-.054-.1-.127-.29-.038-.1a4.9 4.9 0 0 1-.228-1.585 2.707 2.707 0 0 1 .772-2.009 2.806 2.806 0 0 1 .122-2.018s.711-.147 2.055.81a7.5 7.5 0 0 1 3.59-.068c.564-.371 1.6-.9 2.012-.75a2.6 2.6 0 0 1 .148 1.862 3.253 3.253 0 0 1 .879 2.32 6.017 6.017 0 0 1-.18 1.44l-.06.206s-.035.1-.073.19l-.045.1c-.487 1.065-1.487 1.462-3.1 1.627.523.328.673.739.673 1.852s-.015 1.262-.011 1.518a.708.708 0 0 0 .346.512 7 7 0 0 0 4.742-6.634z" transform="translate(-252 -247.712)" style="fill:#2a72e5"/>
</svg>
