<svg xmlns="http://www.w3.org/2000/svg" width="14" height="14" viewBox="0 0 14 14">
    <path style="fill:none" d="M0 0h14v14H0z"/>
    <path d="M14 1.346a5.7 5.7 0 0 1-1.65.452A2.882 2.882 0 0 0 13.614.21a5.753 5.753 0 0 1-1.824.7 2.876 2.876 0 0 0-4.9 2.619 8.157 8.157 0 0 1-5.92-3 2.876 2.876 0 0 0 .893 3.831A2.864 2.864 0 0 1 .562 4v.036a2.874 2.874 0 0 0 2.3 2.816 2.886 2.886 0 0 1-1.3.049A2.876 2.876 0 0 0 4.252 8.9a5.762 5.762 0 0 1-3.567 1.23A5.806 5.806 0 0 1 0 10.086a8.137 8.137 0 0 0 4.4 1.289A8.116 8.116 0 0 0 12.575 3.2c0-.124 0-.248-.009-.372A5.826 5.826 0 0 0 14 1.346z" transform="translate(0 1.4)" style="fill:#2a72e5"/>
</svg>
