<svg xmlns="http://www.w3.org/2000/svg" width="14" height="14" viewBox="0 0 14 14">
    <path d="m26.5 29.658-2.333-2.333a.583.583 0 0 1 0-.825l2.333-2.334a.584.584 0 1 1 .825.825L25.4 26.912l1.921 1.921a.584.584 0 0 1-.825.825zm2.917 0a.583.583 0 0 0 .825 0l2.333-2.333a.583.583 0 0 0 0-.825l-2.335-2.334a.584.584 0 1 0-.825.825l1.921 1.921-1.921 1.921a.583.583 0 0 0 0 .825zm7.412-4.5h-1.75a.583.583 0 0 0 0 1.167h1.75v10.5h-10.5v-4.663a.583.583 0 0 0-1.167 0v4.667A1.167 1.167 0 0 0 26.327 38h10.5a1.167 1.167 0 0 0 1.167-1.167v-10.5a1.167 1.167 0 0 0-1.167-1.17z" transform="translate(-23.994 -23.996)" style="fill:#7a7e87"/>
</svg>
