<svg xmlns="http://www.w3.org/2000/svg" width="14" height="14" viewBox="0 0 14 14">
    <path style="fill:none" d="M0 0h14v14H0z"/>
    <path data-name="패스 262" d="M51.308 24h-9.154A2.154 2.154 0 0 0 40 26.154v11.308a.538.538 0 0 0 .538.538h9.692a.538.538 0 1 0 0-1.077h-9.153a1.077 1.077 0 0 1 1.077-1.077h9.154a.538.538 0 0 0 .538-.538v-10.77a.538.538 0 0 0-.538-.538zm-5.923 1.077h3.231v4.846l-1.293-.969a.538.538 0 0 0-.646 0l-1.292.969zm5.385 9.692h-8.616a2.142 2.142 0 0 0-1.077.289v-8.9a1.077 1.077 0 0 1 1.077-1.077h2.154V31a.538.538 0 0 0 .862.431L47 30.058l1.831 1.373a.538.538 0 0 0 .861-.431v-5.923h1.077z" transform="translate(-39 -24)" style="fill:#2a72e5"/>
</svg>
