<svg width="14" height="14" viewBox="0 0 14 14" fill="none" xmlns="http://www.w3.org/2000/svg">
<path d="M4.763 10.6248V9.92481C4.03069 9.48998 3.41775 8.88019 2.97915 8.15013C2.54055 7.42006 2.29001 6.59255 2.25 5.74181C2.25068 5.02808 2.41219 4.32367 2.72254 3.68094C3.03289 3.03821 3.48409 2.47368 4.04261 2.0293C4.60113 1.58492 5.25262 1.27213 5.94865 1.11415C6.64468 0.956174 7.36737 0.957083 8.063 1.11681C8.7376 1.26465 9.37101 1.56026 9.9176 1.98235C10.4642 2.40445 10.9104 2.94252 11.224 3.55781C11.7454 4.67693 11.8293 5.95059 11.4592 7.12842C11.0891 8.30625 10.2918 9.30303 9.224 9.92281V10.6228C9.224 10.7968 9.29 11.1988 8.648 11.1988H5.34C4.679 11.2038 4.763 10.9428 4.763 10.6248Z" stroke="#7A7E87" stroke-width="1.2" stroke-linecap="round" stroke-linejoin="round"/>
<path d="M4.88281 12.9998C6.25564 12.6097 7.70999 12.6097 9.08281 12.9998" stroke="#7A7E87" stroke-width="1.2" stroke-linecap="round" stroke-linejoin="round"/>
</svg>
