<svg width="20" height="20" viewBox="0 0 20 20" fill="none" xmlns="http://www.w3.org/2000/svg">
<path d="M11.0514 18.5714H7.50285V7.11993H10.8986V8.69135H10.9443C11.2835 8.10606 11.7762 7.62454 12.3691 7.29876C12.962 6.97298 13.6326 6.81532 14.3086 6.84278C18.0543 6.84278 18.5714 9.46421 18.5714 12.2971V18.5714H15.0229V12.9999C15.0229 11.7142 15.0229 9.96135 13.1786 9.96135C11.3029 9.96135 11.05 11.4471 11.05 12.8985L11.0514 18.5714ZM5.26142 18.5714H1.70571V7.11993H5.26142V18.5714ZM3.49142 5.5585C3.08303 5.55935 2.68355 5.43903 2.34355 5.21279C2.00355 4.98654 1.7383 4.66452 1.58136 4.28748C1.42442 3.91044 1.38284 3.49532 1.46189 3.09465C1.54094 2.69398 1.73707 2.32575 2.02545 2.03657C2.31383 1.74739 2.68151 1.55025 3.08196 1.47009C3.48242 1.38993 3.89765 1.43035 4.27512 1.58625C4.6526 1.74214 4.97535 2.0065 5.20253 2.34587C5.42972 2.68525 5.55114 3.08439 5.55142 3.49278C5.55143 4.03966 5.33457 4.56422 4.94841 4.95145C4.56225 5.33868 4.03829 5.55699 3.49142 5.5585Z" fill="#1C1C1C"/>
</svg>
