<svg width="14" height="14" viewBox="0 0 14 14" fill="none" xmlns="http://www.w3.org/2000/svg">
<path d="M7.73609 13H5.25209V4.98397H7.62909V6.08397H7.66109C7.89857 5.67427 8.24344 5.3372 8.65847 5.10916C9.0735 4.88111 9.54293 4.77075 10.0161 4.78997C12.6381 4.78997 13.0001 6.62497 13.0001 8.60797V13H10.5161V9.09997C10.5161 8.19997 10.5161 6.97297 9.22509 6.97297C7.9121 6.97297 7.73509 8.01297 7.73509 9.02897L7.73609 13ZM3.68309 13H1.19409V4.98397H3.68309V13ZM2.44409 3.89097C2.15822 3.89157 1.87859 3.80735 1.64058 3.64898C1.40258 3.4906 1.21691 3.26519 1.10705 3.00126C0.997189 2.73734 0.968087 2.44675 1.02342 2.16628C1.07876 1.88581 1.21604 1.62805 1.41791 1.42562C1.61978 1.2232 1.87715 1.0852 2.15747 1.02909C2.43779 0.972973 2.72845 1.00127 2.99268 1.1104C3.25692 1.21952 3.48284 1.40457 3.64187 1.64214C3.8009 1.8797 3.8859 2.1591 3.88609 2.44497C3.8861 2.82779 3.7343 3.19498 3.46399 3.46604C3.19367 3.7371 2.8269 3.88991 2.44409 3.89097Z" fill="#2a72e5"/>
</svg>
