<svg xmlns="http://www.w3.org/2000/svg" width="140" height="140" viewBox="0 0 140 140">
    <g data-name="그룹 6547">
        <path style="fill:none" d="M0 0h140v140H0z"/>
        <g data-name="그룹 6546">
            <g data-name="타원 22" transform="translate(33.443 37.444)" style="stroke:#1c1c1c;fill:none">
                <circle cx="36.017" cy="36.017" r="36.017" style="stroke:none"/>
                <circle cx="36.017" cy="36.017" r="35.517" style="fill:none"/>
            </g>
            <g data-name="타원 23" transform="translate(22.735 26.736)" style="stroke-dasharray:8 8;stroke:#1c1c1c;fill:none">
                <circle cx="46.725" cy="46.725" r="46.725" style="stroke:none"/>
                <circle cx="46.725" cy="46.725" r="46.225" style="fill:none"/>
            </g>
            <g data-name="빼기 1" style="fill:#fff">
                <path d="M.5 56.932V.5h55.458c.002.16.002.317.002.473 0 7.555-1.48 14.884-4.397 21.782A55.998 55.998 0 0 1 39.57 40.543a56.018 56.018 0 0 1-17.788 11.994C15.035 55.39 7.878 56.868.5 56.932z" style="stroke:none" transform="rotate(180 34.73 37.217)"/>
                <path d="M1 1v55.425a55.06 55.06 0 0 0 20.587-4.348 55.517 55.517 0 0 0 17.63-11.887 55.496 55.496 0 0 0 11.886-17.63C53.99 15.733 55.456 8.479 55.46 1H1M0 0h56.452c.006.345.008.664.008.973 0 7.623-1.493 15.017-4.437 21.977a56.496 56.496 0 0 1-12.1 17.947 56.52 56.52 0 0 1-17.947 12.1C15.018 55.942 7.625 57.435 0 57.435V0z" style="fill:#1c1c1c;stroke:none" transform="rotate(180 34.73 37.217)"/>
            </g>
            <path d="M15.921 73.461H123v.973H15.921z"/>
        </g>
        <g data-name="그룹 6548">
            <path data-name="다각형 1" d="m115.125 13.625 1.817 5.308 5.308 1.817-5.308 1.817-1.817 5.308-1.817-5.308L108 20.75l5.308-1.817z"/>
            <path data-name="다각형 2" d="m122.625 25.625.861 2.514L126 29l-2.514.861-.861 2.514-.861-2.514L119.25 29l2.514-.861z"/>
        </g>
    </g>
</svg>
