<svg xmlns="http://www.w3.org/2000/svg" width="64" height="64" viewBox="0 0 64 64">
    <g style="stroke:#f5f5f5;fill:#fff">
        <rect width="64" height="64" rx="16" style="stroke:none"/>
        <rect x=".5" y=".5" width="63" height="63" rx="15.5" style="fill:none"/>
    </g>
    <path data-name="Base" transform="translate(5 21.999)" style="fill:none" d="M0 0h54v18.998H0z"/>
    <g data-name="그룹 314">
        <path data-name="Base" d="M3.232 0h12.6a3.232 3.232 0 0 1 3.232 3.232 3.232 3.232 0 0 1-3.234 3.232H.259A.259.259 0 0 1 0 6.2V3.232A3.232 3.232 0 0 1 3.232 0z" transform="translate(39.854 22.227)" style="fill:#2a72e5"/>
        <g data-name="그룹 312">
            <path data-name="패스 86" d="m1116.451 3819.631.369-.362a1.058 1.058 0 0 0 .813.394c.4 0 .659-.19.708-.47.053-.3-.155-.4-.437-.534l-.424-.2a.774.774 0 0 1-.522-.873 1.217 1.217 0 0 1 1.25-.918 1.179 1.179 0 0 1 .929.42l-.333.336a.878.878 0 0 0-.677-.3.577.577 0 0 0-.633.43c-.05.284.2.393.447.5l.42.195a.756.756 0 0 1 .517.9 1.273 1.273 0 0 1-1.335.968 1.374 1.374 0 0 1-1.092-.486z" transform="translate(-1074.413 -3793.07)" style="fill:#fff"/>
            <path data-name="패스 87" d="M1176.743 3814.031h.513l-.436 2.489h-.513zm.064-.773a.376.376 0 0 1 .382-.308.254.254 0 0 1 .279.308.385.385 0 0 1-.387.307.252.252 0 0 1-.274-.308z" transform="translate(-1131.447 -3789.528)" style="fill:#fff"/>
            <path data-name="패스 88" d="M1203.558 3834.481h.423l-.021.349h.014a1.316 1.316 0 0 1 .837-.412.537.537 0 0 1 .6.457 1.4 1.4 0 0 1 .885-.457c.517 0 .7.353.588.986l-.275 1.566h-.517l.263-1.5c.075-.429-.029-.6-.309-.6a1.017 1.017 0 0 0-.617.339l-.309 1.765h-.518l.263-1.5c.075-.429-.025-.6-.309-.6a1.029 1.029 0 0 0-.617.339l-.309 1.765h-.513z" transform="translate(-1156.998 -3809.979)" style="fill:#fff"/>
            <path data-name="패스 89" d="M1289.3 3834.481h.423l-.007.271h.013a1.494 1.494 0 0 1 .819-.335c.63 0 .893.5.758 1.267a1.463 1.463 0 0 1-1.3 1.344.843.843 0 0 1-.6-.281l-.062.425-.141.806h-.513zm1.47 1.213c.091-.521-.019-.842-.433-.842a1.053 1.053 0 0 0-.643.3l-.213 1.216a.7.7 0 0 0 .5.226c.362.006.688-.316.791-.9z" transform="translate(-1238.531 -3809.979)" style="fill:#fff"/>
            <path data-name="패스 90" d="m1353.727 3815.206.53-3.022h.513l-.534 3.049c-.025.141.029.191.092.191a.366.366 0 0 0 .087-.009v.393a.865.865 0 0 1-.286.042c-.375-.002-.472-.241-.402-.644z" transform="translate(-1300.483 -3788.798)" style="fill:#fff"/>
            <path data-name="패스 91" d="M1380.2 3835.729a1.5 1.5 0 0 1 1.359-1.312c.657 0 .925.475.8 1.181a1.48 1.48 0 0 1-.069.263h-1.606c-.043.475.2.76.631.76a1.207 1.207 0 0 0 .622-.185l.122.331a1.727 1.727 0 0 1-.883.262.983.983 0 0 1-.976-1.3zm1.731-.225c.075-.43-.075-.679-.435-.679a.838.838 0 0 0-.753.679z" transform="translate(-1325.703 -3809.979)" style="fill:#fff"/>
        </g>
        <g data-name="그룹 313">
            <path data-name="패스 92" d="m5.951 37.23.5-1.275a4.344 4.344 0 0 0 2.665.868 1.916 1.916 0 0 0 1-.217.681.681 0 0 0 .353-.609.642.642 0 0 0-.245-.529 2.277 2.277 0 0 0-.835-.34l-1.21-.275q-1.987-.435-1.987-2.042a1.952 1.952 0 0 1 .374-1.181 2.466 2.466 0 0 1 1.051-.8 3.957 3.957 0 0 1 1.57-.289 4.723 4.723 0 0 1 1.5.239 3.929 3.929 0 0 1 1.267.689l-.533 1.23a3.736 3.736 0 0 0-2.247-.81 1.712 1.712 0 0 0-.965.232.726.726 0 0 0-.346.636.649.649 0 0 0 .209.507 1.731 1.731 0 0 0 .713.318l1.239.276a3.106 3.106 0 0 1 1.577.761 1.846 1.846 0 0 1 .5 1.339 1.892 1.892 0 0 1-.807 1.608 3.648 3.648 0 0 1-2.2.594 4.909 4.909 0 0 1-3.143-.93z"/>
            <path data-name="패스 93" d="M15.859 32.088v3.274q0 1.289 1.2 1.29a2.554 2.554 0 0 0 .72-.116v1.434a3.378 3.378 0 0 1-1.152.174 2.5 2.5 0 0 1-1.9-.7 2.786 2.786 0 0 1-.662-2v-3.361h-1.4v-1.361h1.4V28.94l1.8-.608v2.39h1.93v1.361z"/>
            <path data-name="패스 94" d="M25.982 30.726v7.315h-1.771v-1.173a2.34 2.34 0 0 1-.951.949 2.881 2.881 0 0 1-1.412.34 3.086 3.086 0 0 1-1.685-.464 3.041 3.041 0 0 1-1.138-1.317 4.6 4.6 0 0 1-.4-1.985 4.681 4.681 0 0 1 .411-2.006 3.228 3.228 0 0 1 1.145-1.361 2.96 2.96 0 0 1 1.67-.485 2.886 2.886 0 0 1 1.412.339 2.356 2.356 0 0 1 .951.95v-1.1zm-2.261 5.389a2.774 2.774 0 0 0 .49-1.753 2.827 2.827 0 0 0-.49-1.781 1.673 1.673 0 0 0-1.4-.623 1.652 1.652 0 0 0-1.39.645 2.863 2.863 0 0 0-.5 1.788 2.681 2.681 0 0 0 .5 1.738 1.709 1.709 0 0 0 1.4.609 1.656 1.656 0 0 0 1.392-.625z"/>
            <path data-name="패스 95" d="m32.911 38.041-3.183-3.375v3.375h-1.786V27.379h1.786v6.577l3-3.216h2.175l-3.269 3.491 3.528 3.809z"/>
            <path data-name="패스 96" d="M37.765 27.409v1.781h-2v-1.781zm-1.887 3.317h1.786v7.316h-1.789z"/>
            <path data-name="패스 97" d="M46.407 33.55v4.49h-1.8v-4.4a1.97 1.97 0 0 0-.331-1.268 1.253 1.253 0 0 0-1.023-.4 1.747 1.747 0 0 0-1.325.529 1.942 1.942 0 0 0-.5 1.4v4.142h-1.786V32.8a16.681 16.681 0 0 0-.115-2.072h1.685l.129 1.2a2.643 2.643 0 0 1 1.016-1.028 2.892 2.892 0 0 1 1.447-.361q2.603-.001 2.603 3.011z"/>
            <path data-name="패스 98" d="M55.35 30.726v7.083a3.4 3.4 0 0 1-.936 2.593 3.87 3.87 0 0 1-2.751.883 6.029 6.029 0 0 1-2.967-.71l.288-1.375a5.639 5.639 0 0 0 2.635.695 1.717 1.717 0 0 0 1.944-1.941v-1.449a2.539 2.539 0 0 1-.965.964 2.785 2.785 0 0 1-1.426.369 3.156 3.156 0 0 1-1.692-.457 3.054 3.054 0 0 1-1.152-1.289 4.625 4.625 0 0 1 0-3.809 3.073 3.073 0 0 1 1.152-1.29 3.17 3.17 0 0 1 1.692-.455 2.959 2.959 0 0 1 1.433.339 2.346 2.346 0 0 1 .958.95v-1.1zm-2.3 5.1a2.892 2.892 0 0 0 .007-3.274 1.966 1.966 0 0 0-2.815 0 2.876 2.876 0 0 0 0 3.274 1.959 1.959 0 0 0 2.808 0z"/>
        </g>
    </g>
</svg>
