<svg xmlns="http://www.w3.org/2000/svg" width="64" height="64" viewBox="0 0 64 64">
    <g transform="translate(-380 -2662)">
        <rect width="64" height="64" rx="16" transform="translate(380 2662)" style="fill:#2a72e5"/>
        <g data-name="symbol">
            <path data-name="패스 61" d="M1.758 41.557a29.158 29.158 0 0 0-.468 1.654 2.492 2.492 0 0 1 1.283-1.624 6.655 6.655 0 0 1 5.277-2.57v-.019c-3.791-1.09-4.967.157-5.3.744a12.882 12.882 0 0 0-.795 1.815" transform="translate(386.013 2647.485)" style="fill:#fff"/>
            <path data-name="패스 62" d="m18.2 21.067-.558.534c.642-.526 1.7-.4 3.327.386a7.076 7.076 0 0 1 1.328-1.7c-.772-.564-1.554-1.054-2.051-.823a17.692 17.692 0 0 0-2.046 1.603" transform="translate(373.497 2662.15)" style="fill:#fff"/>
            <path data-name="패스 63" d="M46.948 6.21c-.579.212-1.35.5-1.923.731a6.984 6.984 0 0 1 .8 1.032 19.056 19.056 0 0 1 2.689-1.2c-.155-.648-.194-.97 0-1.053-.473.145-1.107.322-1.575.487" transform="translate(352.542 2672.62)" style="fill:#fff"/>
            <path data-name="패스 64" d="M80.809.062a90.27 90.27 0 0 0-2.932.284c-.459.115-.662.278-.888.969A33.191 33.191 0 0 1 80.61.832 1.975 1.975 0 0 1 82.184 0z" transform="translate(328.08 2676.999)" style="fill:#fff"/>
            <path data-name="패스 65" d="M118.294 1.232a88.172 88.172 0 0 0-2.75-.38 3.526 3.526 0 0 0-2.357.56 35.738 35.738 0 0 1 3.769.4 4.719 4.719 0 0 1 2.956-.259c-.485-.1-1.131-.237-1.618-.317" transform="translate(300.378 2676.358)" style="fill:#fff"/>
            <path data-name="패스 66" d="M153.3 9.858a61.048 61.048 0 0 0-2.046-.913 6.319 6.319 0 0 0-3.856-.315 23.324 23.324 0 0 1 2.946 1.133 7.183 7.183 0 0 1 4.816 1.126c-.553-.32-1.29-.752-1.86-1.032" transform="translate(274.193 2670.522)" style="fill:#fff"/>
            <path data-name="패스 67" d="M181.329 29.056a14.019 14.019 0 0 0-1.691-3.328l-.437-.6c-1.965-2.407-3.946-3.474-6.624-3.565a9.5 9.5 0 0 1 1.688 1.653c4.453.63 7.518 4.545 7.808 9.973a13.872 13.872 0 0 0-.744-4.133" transform="translate(254.927 2660.498)" style="fill:#fff"/>
            <path data-name="패스 68" d="M180.8 58.542a19.255 19.255 0 0 0 2.414-1.847c.284-.276.665-.641.939-.931 5.554-6.437 3.03-15.724-2.934-17.408a4.567 4.567 0 0 1 .1.891v.16a4.51 4.51 0 0 1-.1.878c6.38 2.88 5.753 14.37-1.016 18.628z" transform="translate(249.094 2647.646)" style="fill:#fff"/>
            <path data-name="패스 69" d="M142.579 75.551a70.565 70.565 0 0 0 2.757-.775c8.166-3.069 9.47-15.6 4.885-18.617a9.091 9.091 0 0 1-1.687 1.6c3.878 4.276-.1 16.358-7.374 18.092l1.419-.3" transform="translate(278.97 2634.021)" style="fill:#fff"/>
            <path data-name="패스 70" d="M100.256 87.277c.77-.007 1.8-.018 2.566-.048 6.784-.7 11.611-13.158 9.931-17.055a22.707 22.707 0 0 1-2.947 1.048c-.015 4.981-6.722 16.117-11.532 15.989.594.022 1.387.065 1.982.066" transform="translate(311.791 2623.296)" style="fill:#fff"/>
            <path data-name="패스 71" d="M60.455 92.228c.758.183 1.77.417 2.532.573 2.83.207 9.957-9.4 12.589-14.479a35.493 35.493 0 0 1-3.778.286c-2.055 1.994-7.475 8.267-8.541 9.5-2.744 3.186-3.763 3.79-4.134 3.736l1.333.381" transform="translate(341.754 2617.061)" style="fill:#fff"/>
            <path data-name="패스 72" d="M28.026 86.974a22.738 22.738 0 0 0 2.565 1.486l.073.036c.153-.811 6.9-8.868 12.1-11.751a33.592 33.592 0 0 1-3.614-.589c-6.221 2.385-12.572 9.68-11.478 10.576l.35.241" transform="translate(365.914 2618.717)" style="fill:#fff"/>
            <path data-name="패스 73" d="M6.843 74.553c.3.4.692.922 1.006 1.3-1.4-2.135 4.506-7.665 10.62-8.954a19.684 19.684 0 0 1-2.689-1.275c-5.625.611-10.98 4.6-9.878 7.355.269.483.631 1.127.942 1.575" transform="translate(382.595 2626.779)" style="fill:#fff"/>
            <path data-name="패스 74" d="M0 54.391v.27c.024.467.064 1.09.114 1.554-.15-3.033 4.455-4.993 8.686-4.855a7.374 7.374 0 0 1-1.329-1.744c-3.574-.458-5.529.463-6.539 1.316A7.387 7.387 0 0 0 0 54.391" transform="translate(387 2639.122)" style="fill:#fff"/>
        </g>
    </g>
</svg>
